Coordinates
version=1
nRows=5
nColumns=40
inDegrees=yes

Units are S.I. units (second, meters, Newtons, ...)
Angles are in degrees.

endheader
time	pelvis_tilt	pelvis_list	pelvis_rotation	pelvis_tx	pelvis_ty	pelvis_tz	hip_flexion_r	hip_adduction_r	hip_rotation_r	knee_angle_r	knee_angle_r_beta	ankle_angle_r	subtalar_angle_r	mtp_angle_r	hip_flexion_l	hip_adduction_l	hip_rotation_l	knee_angle_l	knee_angle_l_beta	ankle_angle_l	subtalar_angle_l	mtp_angle_l	lumbar_extension	lumbar_bending	lumbar_rotation	arm_flex_r	arm_add_r	arm_rot_r	elbow_flex_r	pro_sup_r	wrist_flex_r	wrist_dev_r	arm_flex_l	arm_add_l	arm_rot_l	elbow_flex_l	pro_sup_l	wrist_flex_l	wrist_dev_l
      1.50000000	     -2.26675725	     -5.56601483	     -0.27750954	      1.00542382	      0.93562784	      0.42549940	     27.85607011	     -5.96238809	     -4.30083834	     59.86030880	     59.86030880	      4.16805035	     -9.38550146	     -2.49001242	     14.44070373	     -7.54606598	     -8.19055414	     22.50571394	     22.50571394	     12.88908408	     -7.25149102	     -2.79647881	     -9.72954358	      4.78525835	      1.38366121	      7.82403933	    -12.53721963	      1.96105861	     45.51575591	     45.38804734	      0.00000000	      0.00000000	     14.04989398	    -17.75132247	      4.51717967	     43.26418998	     45.52188726	      0.00000000	      0.00000000
      1.51314286	     -2.23702773	     -5.58946957	     -0.58120287	      1.00442318	      0.93655904	      0.42500526	     28.32052468	     -5.97285452	     -4.16213323	     58.06168396	     58.06168396	      3.88295993	     -9.20808001	     -2.94927252	     13.58392979	     -7.47058110	     -8.40020939	     21.68316504	     21.68316504	     12.80684396	     -7.35668546	     -2.99622201	     -9.84743587	      4.87101332	      1.39602850	      6.62551542	    -12.45521841	      1.51102715	     42.33257283	     45.53367398	      0.00000000	      0.00000000	     15.15251081	    -18.14966969	      4.13519163	     44.70820767	     45.63697546	      0.00000000	      0.00000000
      1.52628571	     -2.26090737	     -5.65191681	     -0.86906505	      1.00337690	      0.93724964	      0.42453934	     28.77207673	     -5.92895060	     -4.08075895	     56.14026136	     56.14026136	      3.56165468	     -9.05216976	     -3.26834327	     12.88494957	     -7.44768317	     -8.57260585	     21.02450507	     21.02450507	     12.74492202	     -7.48749100	     -3.29454869	     -9.92858303	      5.02268097	      1.37660348	      5.38635577	    -12.33785892	      0.71238935	     39.43793386	     45.68502742	      0.00000000	      0.00000000	     16.04297213	    -18.55967061	      3.58233298	     46.65905294	     45.77082890	      0.00000000	      0.00000000
      1.53942857	     -2.31996068	     -5.71134263	     -1.19639610	      1.00231808	      0.93774525	      0.42426787	     29.19853877	     -5.82816074	     -3.97589666	     54.11200005	     54.11200005	      3.48446919	     -8.77293547	     -3.07185009	     12.25749851	     -7.44649166	     -8.80246779	     20.44451406	     20.44451406	     12.83088582	     -7.51505373	     -3.26951683	    -10.01817472	      5.13548372	      1.68144171	      3.62164220	    -12.63783472	      0.61508645	     37.84265270	     45.74191970	      0.00000000	      0.00000000	     17.38185085	    -18.78027791	      3.21331029	     47.93626442	     45.84181747	      0.00000000	      0.00000000
      1.55257143	     -2.37923977	     -5.76725549	     -1.50296857	      1.00124838	      0.93812984	      0.42401773	     29.51298264	     -5.72744902	     -3.96446837	     51.87709460	     51.87709460	      3.35089885	     -8.47242856	     -2.85359155	     11.67843357	     -7.43676816	     -8.98379108	     19.92852150	     19.92852150	     12.89298568	     -7.61937559	     -3.33649498	    -10.09549266	      5.28676727	      1.93815487	      2.12555777	    -12.81544989	      0.34516244	     35.95513813	     45.82337826	      0.00000000	      0.00000000	     18.53972307	    -19.00039249	      2.81913287	     49.40871947	     45.91429630	      0.00000000	      0.00000000
